<svg width="78.000000" height="80.032715" viewBox="0 0 78 80.0327" fill="none" xmlns="http://www.w3.org/2000/svg" xmlns:xlink="http://www.w3.org/1999/xlink">
	<desc>
			Created with Pixso.
	</desc>
	<defs>
		<clipPath id="clip94552_2034">
			<rect id="icon_gift" width="78.000000" height="80.032814" fill="white" fill-opacity="0"/>
		</clipPath>
	</defs>
	<rect id="icon_gift" width="78.000000" height="80.032814" fill="#FFFFFF" fill-opacity="0"/>
	<g clip-path="url(#clip94552_2034)">
		<path id="Vector" d="M64.0155 34.7273L14.031 34.7273C12.2766 34.7273 10.8494 33.3091 10.8494 31.5657L10.8494 22.0935C10.8494 20.3501 12.2766 18.9314 14.031 18.9314L64.0149 18.9314C65.7687 18.9314 67.1953 20.3501 67.1953 22.0935L67.1953 31.5662C67.1959 33.3091 65.7693 34.7273 64.0155 34.7273ZM14.031 21.3545C13.6276 21.3545 13.2869 21.6931 13.2869 22.0935L13.2869 31.5662C13.2869 31.9734 13.6208 32.3047 14.031 32.3047L64.0149 32.3047C64.4244 32.3047 64.7578 31.9734 64.7578 31.5662L64.7578 22.0935C64.7578 21.6926 64.4171 21.3545 64.0149 21.3545L14.031 21.3545Z" fill="#FFFFFF" fill-opacity="1.000000" fill-rule="nonzero"/>
		<path id="Vector" d="M57.0447 67.1768L20.999 67.1768C17.6218 67.1768 14.8741 64.446 14.8741 61.0881L14.8741 33.5159C14.8741 32.8469 15.4201 32.3042 16.0929 32.3042C16.7656 32.3042 17.3116 32.8469 17.3116 33.5159L17.3116 61.0881C17.3116 63.1096 18.9661 64.7537 20.999 64.7537L57.0447 64.7537C59.077 64.7537 60.7308 63.1096 60.7308 61.0881L60.7308 33.5159C60.7308 32.8469 61.2768 32.3042 61.9496 32.3042C62.6223 32.3042 63.1683 32.8469 63.1683 33.5159L63.1683 61.0881C63.1683 64.446 60.4213 67.1768 57.0447 67.1768Z" fill="#FFFFFF" fill-opacity="1.000000" fill-rule="nonzero"/>
		<path id="Vector" d="M39.0225 67.1768C38.3498 67.1768 37.8038 66.6345 37.8038 65.9653L37.8038 33.5159C37.8038 32.8469 38.3498 32.3042 39.0225 32.3042C39.6953 32.3042 40.2413 32.8469 40.2413 33.5159L40.2413 65.9646C40.2413 66.6345 39.6959 67.1768 39.0225 67.1768Z" fill="#FFFFFF" fill-opacity="1.000000" fill-rule="nonzero"/>
		<path id="Vector" d="M23.8113 21.3503C19.9966 19.2954 18.5731 14.5388 20.6383 10.7461C22.7022 6.95508 27.4864 5.53931 31.303 7.59058C37.117 10.7212 40.2565 19.4553 40.3869 19.8257L38.0877 20.6294C38.0585 20.5471 35.1256 12.4048 30.1433 9.72168C27.5078 8.30542 24.2062 9.2832 22.7821 11.8994C21.3567 14.5183 22.3391 17.8018 24.9734 19.2197L23.8113 21.3503Z" fill="#FFFFFF" fill-opacity="1.000000" fill-rule="nonzero"/>
		<path id="Vector" d="M54.2313 21.3503L53.071 19.2192C54.3477 18.5315 55.2782 17.3921 55.6926 16.0103C56.1063 14.6279 55.9534 13.168 55.2617 11.9001C54.5719 10.6309 53.4263 9.70654 52.0363 9.29517C50.6457 8.88379 49.1783 9.0354 47.9023 9.72168C42.9201 12.4041 39.9871 20.5464 39.9579 20.6289L37.6587 19.825C37.7891 19.4548 40.928 10.7207 46.7421 7.59058C48.5897 6.5957 50.7182 6.37646 52.7316 6.97266C54.7468 7.56812 56.4061 8.90869 57.4061 10.7461C58.4073 12.5828 58.6285 14.6975 58.0289 16.7009C57.4287 18.7036 56.0801 20.3545 54.2313 21.3503Z" fill="#FFFFFF" fill-opacity="1.000000" fill-rule="nonzero"/>
		<path id="Vector" d="M61.9496 50.9514L16.0929 50.9514C15.4201 50.9514 14.8741 50.4089 14.8741 49.7405C14.8741 49.0718 15.4201 48.5293 16.0929 48.5293L61.9496 48.5293C62.6223 48.5293 63.1683 49.0718 63.1683 49.7405C63.1683 50.4089 62.6229 50.9514 61.9496 50.9514Z" fill="#FFFFFF" fill-opacity="1.000000" fill-rule="nonzero"/>
	</g>
</svg>
