<svg width="111" height="232" fill="none" xmlns="http://www.w3.org/2000/svg"><path d="M24.12 224.08c8.21 4.66 18.48 7 30.8 7q20.16 0 32.48-8.12c8.21-5.6 14.18-13.35 17.92-23.24 3.73-10.08 5.6-21.84 5.6-35.28 0-10.27-1.31-19.23-3.92-26.88-2.62-7.84-6.35-14.28-11.2-19.32-4.67-5.04-10.46-8.59-17.36-10.64 9.89-2.99 17.73-8.59 23.52-16.8 5.97-8.22 8.96-19.14 8.96-32.76 0-12.14-2.06-22.5-6.16-31.08-4.11-8.78-10.27-15.5-18.48-20.17-8.22-4.66-18.58-7-31.08-7-12.32 0-22.68 2.34-31.08 7-8.22 4.67-14.38 11.3-18.48 19.89C1.53 35.26-.52 45.62-.52 57.76v7.56h29.68v-4.76c.37-10.64 2.24-19.32 5.6-26.04q1.29-2.66 3.27-4.64 5.72-5.72 17.17-5.72 12.75 0 18.39 6.33 1.18 1.31 2.05 2.91c3.54 6.16 5.32 14.37 5.32 24.64 0 12.13-2.34 20.81-7 26.04-4.67 5.22-12.32 8.02-22.96 8.4h-3.92v29.96h1.96c.93 0 1.68.09 2.24.28 11.01.74 18.66 4.94 22.96 12.6 4.48 7.46 6.72 17.17 6.72 29.12 0 8.21-.66 15.49-1.96 21.84-1.31 6.34-3.83 11.29-7.56 14.84-3.74 3.36-9.24 5.04-16.52 5.04q-10.36 0-15.96-4.76c-3.55-3.18-6.07-7.47-7.56-12.88q-1.96-8.12-2.24-18.2v-5.04H-.52v7.56q0 17.92 6.16 31.08 3.5 7.47 8.98 12.96 4.18 4.17 9.5 7.2Z" fill="#F2F2F2" fill-rule="evenodd"/></svg>