<svg width="112" height="229" fill="none" xmlns="http://www.w3.org/2000/svg"><path d="M-.38 207.28v21.28h106.96v-25.2H34.9l52.08-79.52c4.48-6.72 8.59-13.26 12.32-19.6 3.73-6.35 6.72-13.16 8.96-20.44 2.43-7.29 3.64-15.78 3.64-25.48 0-18.3-4.48-32.58-13.44-42.84C89.5 5.02 75.87-.21 57.58-.21q-20.16 0-32.48 8.12-3.19 2.16-5.93 4.78-7.6 7.28-11.71 18.19-5.32 14.56-5.32 34.99v7.85H32.1v-7.56q0-10.92 2.24-20.44 2.24-9.52 8.12-15.4c3.92-3.92 9.43-5.88 16.52-5.88 8.4 0 14.28 2.98 17.64 8.96 3.36 5.97 5.04 14.18 5.04 24.64q0 12.6-3.64 22.4c-2.24 6.34-5.23 12.41-8.96 18.2-3.55 5.78-7.47 12.04-11.76 18.76L-.38 207.28Z" fill="#F2F2F2" fill-rule="evenodd"/></svg>