<svg width="200" height="211" fill="none" xmlns="http://www.w3.org/2000/svg"><defs><clipPath id="a"><path transform="translate(30)" fill="#fff" fill-opacity="0" d="M0 0h140v194H0z"/></clipPath></defs><circle cx="100" cy="111" r="100" fill="#68B738"/><path fill="none" d="M30 0h140v194H30z"/><g clip-path="url(#a)"><path d="M139.67 0h-.75A6.876 6.876 0 0 0 136 3.18c-1.13 2.16-2 4.45-2.58 6.82-.13.71-.49 1.36-1.03 1.84-.53.49-1.21.78-1.93.84-2.21.37-4.3 1.25-6.11 2.56a14.64 14.64 0 0 0-4.35 5 53.212 53.212 0 0 0-3.7 8c-2.84 7.35-5.02 14.96-7.7 22.38-1.26 3.38-1.32 3.38-5.12 3.38-4.55 0-4.22-.7-4.28 4.3 0 1.58.48 2.38 2.16 2.3.52 0 1.3-.26 1.5.42.2.68-.48.98-.88 1.38-2.38 2.4-5.38 4.09-8.67 4.88-3.79 1.02-7.67 1.82-11.38 3.05-9.49 3.18-18.27 7.63-25.11 15.15-4 4.67-7.21 9.96-9.48 15.68-7.34 17.28-10.91 35.48-13.66 53.86-1.3 8.62-2.22 17.28-2.92 26-.36 4.28-.76 8.62-.76 12.98h66.66c.11-.88-.05-1.78-.46-2.56-.65-1.6-1.69-3-3.03-4.08a9.967 9.967 0 0 0-4.63-2.06c-1.4-.32-1.56-.74-.7-1.84 1.4-1.88 2.47-3.97 3.18-6.2 3.26-9.62 4.52-19.66 6.1-29.6A59.72 59.72 0 0 1 104 126c2.84-4.95 6.64-9.28 11.18-12.74 1.66-1.26 1.72-1.26 2 .88.2 1.42.24 2.88.34 4.32.6 9.44.48 18.93-.36 28.36-.76 7.31-.86 14.67-.3 22 .79 8.5 2.31 16.93 4.54 25.18H148c-.35-2.17-1.35-4.18-2.86-5.76a10.788 10.788 0 0 0-5.62-3.12c-2.51-.4-5.07-.27-7.52.4-1.2.28-1.7 0-1.8-1.3-.83-10.59-.16-21.24 2-31.64a358.23 358.23 0 0 0 6.12-36.36c.52-4.94 2.07-9.71 4.56-14 2.37-4.24 4.46-8.64 6.79-12.91.93-1.54 1.49-3.29 1.64-5.09a11.8 11.8 0 0 0-.79-5.29c-.54-1.42-1.06-2.85-1.72-4.21-2-3.91-4-7.76-5.84-11.7-.98-2-.76-2.24 1.42-2.3 3.26 0 3.26 0 3.32-3.29v-1.31c0-1.38-.53-2.14-2-2h-3.04c-1.38 0-1.78-.58-1.44-2a12.454 12.454 0 0 1 10.26-8.86c4.43-.39 8.89-.1 13.24.86.5.15 1.04.11 1.51-.13s.82-.66.99-1.15c.8-2 1.68-4 2.58-6 .2-.36.29-.77.25-1.18-.03-.4-.19-.79-.45-1.1-6.4-8.13-13.35-15.7-22.8-20.56a3.019 3.019 0 0 1-1.77-2.24c-.53-2.86-1.38-5.65-2.53-8.33A7.009 7.009 0 0 0 139.67 0Z" fill="#000"/></g></svg>