<svg width="112.000000" height="229.000000" viewBox="0 0 112 229" fill="none" xmlns="http://www.w3.org/2000/svg" xmlns:xlink="http://www.w3.org/1999/xlink">
	<desc>
			Created with Pixso.
	</desc>
	<defs/>
	<path id="2" d="M-0.38 207.28L-0.38 228.56L106.58 228.56L106.58 203.36L34.9 203.36L86.98 123.84C91.46 117.12 95.57 110.58 99.3 104.24C103.03 97.89 106.02 91.08 108.26 83.8C110.69 76.51 111.9 68.02 111.9 58.32C111.9 40.02 107.42 25.74 98.46 15.48C89.5 5.02 75.87 -0.21 57.58 -0.21Q37.42 -0.21 25.1 7.91Q21.91 10.07 19.17 12.69Q11.57 19.97 7.46 30.88Q2.14 45.44 2.14 65.87L2.14 73.72L32.1 73.72L32.1 66.16Q32.1 55.24 34.34 45.72Q36.58 36.2 42.46 30.32C46.38 26.4 51.89 24.44 58.98 24.44C67.38 24.44 73.26 27.42 76.62 33.4C79.98 39.37 81.66 47.58 81.66 58.04Q81.66 70.64 78.02 80.44C75.78 86.78 72.79 92.85 69.06 98.64C65.51 104.42 61.59 110.68 57.3 117.4L-0.38 207.28Z" fill="#F2F2F2" fill-opacity="1.000000" fill-rule="evenodd"/>
</svg>
