<svg width="111.000000" height="232.000000" viewBox="0 0 111 232" fill="none" xmlns="http://www.w3.org/2000/svg" xmlns:xlink="http://www.w3.org/1999/xlink">
	<defs/>
	<path id="3" d="M24.12 224.08C32.33 228.74 42.6 231.08 54.92 231.08Q75.08 231.08 87.4 222.96C95.61 217.36 101.58 209.61 105.32 199.72C109.05 189.64 110.92 177.88 110.92 164.44C110.92 154.17 109.61 145.21 107 137.56C104.38 129.72 100.65 123.28 95.8 118.24C91.13 113.2 85.34 109.65 78.44 107.6C88.33 104.61 96.17 99.01 101.96 90.8C107.93 82.58 110.92 71.66 110.92 58.04C110.92 45.9 108.86 35.54 104.76 26.96C100.65 18.18 94.49 11.46 86.28 6.79C78.06 2.13 67.7 -0.21 55.2 -0.21C42.88 -0.21 32.52 2.13 24.12 6.79C15.9 11.46 9.74 18.09 5.64 26.68C1.53 35.26 -0.52 45.62 -0.52 57.76L-0.52 65.32L29.16 65.32L29.16 60.56C29.53 49.92 31.4 41.24 34.76 34.52Q36.05 31.86 38.03 29.88Q43.75 24.16 55.2 24.16Q67.95 24.16 73.59 30.49Q74.77 31.8 75.64 33.4C79.18 39.56 80.96 47.77 80.96 58.04C80.96 70.17 78.62 78.85 73.96 84.08C69.29 89.3 61.64 92.1 51 92.48L47.08 92.48L47.08 122.44L49.04 122.44C49.97 122.44 50.72 122.53 51.28 122.72C62.29 123.46 69.94 127.66 74.24 135.32C78.72 142.78 80.96 152.49 80.96 164.44C80.96 172.65 80.3 179.93 79 186.28C77.69 192.62 75.17 197.57 71.44 201.12C67.7 204.48 62.2 206.16 54.92 206.16Q44.56 206.16 38.96 201.4C35.41 198.22 32.89 193.93 31.4 188.52Q29.44 180.4 29.16 170.32L29.16 165.28L-0.52 165.28L-0.52 172.84Q-0.52 190.76 5.64 203.92Q9.14 211.39 14.62 216.88Q18.8 221.05 24.12 224.08Z" fill="#F2F2F2" fill-opacity="1.000000" fill-rule="evenodd"/>
</svg>
