  <svg width="80.000000" height="83.000000" viewBox="0 0 80 83" fill="none" xmlns="http://www.w3.org/2000/svg" xmlns:xlink="http://www.w3.org/1999/xlink">
    <desc>
        Created with Pixso.
    </desc>
    <defs>
      <clipPath id="clip94552_3481">
        <rect id="icon_gift" width="80.000000" height="83.000000" fill="white" fill-opacity="0"/>
      </clipPath>
    </defs>
    <rect id="icon_gift" width="80.000000" height="83.000000" fill="#FFFFFF" fill-opacity="0"/>
    <g clip-path="url(#clip94552_3481)">
      <path id="Vector" d="M65.65 36.01L14.39 36.01C12.59 36.01 11.12 34.54 11.12 32.73L11.12 22.91C11.12 21.1 12.59 19.63 14.39 19.63L65.65 19.63C67.45 19.63 68.91 21.1 68.91 22.91L68.91 32.73C68.91 34.54 67.45 36.01 65.65 36.01ZM14.39 22.14C13.97 22.14 13.62 22.49 13.62 22.91L13.62 32.73C13.62 33.15 13.97 33.5 14.39 33.5L65.65 33.5C66.07 33.5 66.41 33.15 66.41 32.73L66.41 22.91C66.41 22.49 66.06 22.14 65.65 22.14L14.39 22.14Z" fill="#FFFFFF" fill-opacity="1.000000" fill-rule="nonzero"/>
      <path id="Vector" d="M58.5 69.66L21.53 69.66C18.07 69.66 15.25 66.83 15.25 63.35L15.25 34.75C15.25 34.06 15.81 33.5 16.5 33.5C17.19 33.5 17.75 34.06 17.75 34.75L17.75 63.35C17.75 65.44 19.45 67.15 21.53 67.15L58.5 67.15C60.59 67.15 62.28 65.44 62.28 63.35L62.28 34.75C62.28 34.06 62.84 33.5 63.53 33.5C64.22 33.5 64.78 34.06 64.78 34.75L64.78 63.35C64.78 66.83 61.97 69.66 58.5 69.66Z" fill="#FFFFFF" fill-opacity="1.000000" fill-rule="nonzero"/>
      <path id="Vector" d="M40.02 69.66C39.33 69.66 38.77 69.1 38.77 68.41L38.77 34.75C38.77 34.06 39.33 33.5 40.02 33.5C40.71 33.5 41.27 34.06 41.27 34.75L41.27 68.41C41.27 69.1 40.71 69.66 40.02 69.66Z" fill="#FFFFFF" fill-opacity="1.000000" fill-rule="nonzero"/>
      <path id="Vector" d="M24.42 22.14C20.5 20.01 19.04 15.07 21.16 11.14C23.28 7.21 28.19 5.74 32.1 7.87C38.06 11.11 41.28 20.17 41.42 20.56L39.06 21.39C39.03 21.3 36.02 12.86 30.91 10.08C28.21 8.61 24.82 9.62 23.36 12.34C21.9 15.05 22.91 18.46 25.61 19.93L24.42 22.14Z" fill="#FFFFFF" fill-opacity="1.000000" fill-rule="nonzero"/>
      <path id="Vector" d="M55.62 22.14L54.43 19.93C55.74 19.21 56.69 18.03 57.12 16.6C57.54 15.17 57.38 13.65 56.67 12.34C55.97 11.02 54.79 10.06 53.37 9.63C51.94 9.21 50.43 9.37 49.13 10.08C44.02 12.86 41.01 21.3 40.98 21.39L38.62 20.55C38.75 20.17 41.97 11.11 47.94 7.87C49.83 6.84 52.01 6.61 54.08 7.23C56.15 7.84 57.85 9.23 58.87 11.14C59.9 13.04 60.13 15.24 59.51 17.31C58.9 19.39 57.51 21.1 55.62 22.14Z" fill="#FFFFFF" fill-opacity="1.000000" fill-rule="nonzero"/>
      <path id="Vector" d="M63.53 52.84L16.5 52.84C15.81 52.84 15.25 52.27 15.25 51.58C15.25 50.89 15.81 50.32 16.5 50.32L63.53 50.32C64.22 50.32 64.78 50.89 64.78 51.58C64.78 52.27 64.22 52.84 63.53 52.84Z" fill="#FFFFFF" fill-opacity="1.000000" fill-rule="nonzero"/>
    </g>
  </svg>
